<?xml version="1.0" encoding="utf-8"?>
<!-- Generator: Adobe Illustrator 18.0.0, SVG Export Plug-In . SVG Version: 6.00 Build 0)  -->
<!DOCTYPE svg PUBLIC "-//W3C//DTD SVG 1.1//EN" "http://www.w3.org/Graphics/SVG/1.1/DTD/svg11.dtd">
<svg version="1.1" id="Layer_1" xmlns="http://www.w3.org/2000/svg" xmlns:xlink="http://www.w3.org/1999/xlink" x="0px" y="0px"
	 viewBox="0 0 512 512" enable-background="new 0 0 512 512" xml:space="preserve">
<g>
	<circle fill="#90DFAA" cx="256" cy="256" r="253"/>
	<g>
		<rect x="97.9" y="128.6" fill="#324A5E" width="316.3" height="254.7"/>
		<path fill="#E6E9EE" d="M376.9,142.3H135.1c0,13-10.7,23.6-23.8,23.6V346c13,0,23.8,10.7,23.8,23.7h241.7
			c0-13,10.5-23.5,23.4-23.6V165.9C387.3,165.8,376.9,155.3,376.9,142.3z"/>
		<path fill="#324A5E" d="M179.5,185.3c1.3,0.1,2.6,0.2,3.9,0.3c-0.6,2.3-1.6,4.2-3,5.6c-1.4,1.4-3.1,2.4-5.2,3
			c-2.6,0.7-4.7,0.4-6.4-0.9c-1.7-1.3-2.5-3.5-2.5-6.7c0-3.3,0.8-6.2,2.5-8.5c1.7-2.3,3.9-3.9,6.6-4.7c2.4-0.7,4.4-0.4,5.9,0.6
			c0.9,0.6,1.6,1.7,2,3.2c-1.3,0.6-2.6,1.3-3.9,1.9c-0.2-1-0.7-1.7-1.5-2.1c-0.7-0.4-1.6-0.5-2.7-0.2c-1.5,0.4-2.6,1.3-3.5,2.6
			c-0.9,1.3-1.4,3.2-1.4,5.6c0,2.5,0.4,4.2,1.3,5c0.9,0.8,2,1,3.5,0.6c1.1-0.3,2-0.9,2.7-1.8C178.6,188.1,179.2,186.9,179.5,185.3z"
			/>
		<path fill="#324A5E" d="M186.8,190.9c0-6.6,0-13.3,0-19.9c4.9-1.1,9.8-2.2,14.7-3c0,1.1,0,2.3,0,3.4c-3.6,0.7-7.2,1.4-10.7,2.1
			c0,1.5,0,2.9,0,4.4c3.3-0.7,6.6-1.4,10-2c0,1.1,0,2.2,0,3.4c-3.3,0.6-6.7,1.3-10,2c0,1.8,0,3.6,0,5.4c3.7-0.8,7.4-1.5,11.1-2.2
			c0,1.1,0,2.2,0,3.4C196.8,188.7,191.8,189.7,186.8,190.9z"/>
		<path fill="#324A5E" d="M205.3,187.2c0-6.6,0-13.3,0-19.9c2.8-0.5,5.7-0.9,8.5-1.3c2.1-0.3,3.7-0.3,4.7-0.1c1,0.2,1.8,0.8,2.3,1.6
			c0.6,0.9,0.9,1.9,0.9,3c0,1.5-0.4,2.8-1.3,3.9c-0.9,1.1-2.2,1.9-4,2.3c0.9,0.4,1.6,0.9,2.2,1.4c0.6,0.5,1.3,1.5,2.3,3
			c0.8,1.2,1.6,2.4,2.5,3.6c-1.6,0.2-3.2,0.4-4.8,0.6c-1-1.3-2-2.6-2.9-4c-1-1.4-1.7-2.3-2.1-2.6c-0.4-0.3-0.8-0.6-1.2-0.7
			c-0.4-0.1-1.1-0.1-2,0.1c-0.3,0-0.5,0.1-0.8,0.1c0,2.8,0,5.6,0,8.3C208,186.7,206.7,186.9,205.3,187.2z M209.4,175
			c1-0.2,2-0.3,3-0.4c1.9-0.3,3.2-0.5,3.6-0.7c0.5-0.2,0.9-0.6,1.1-1c0.3-0.4,0.4-1,0.4-1.5c0-0.7-0.2-1.2-0.5-1.6
			c-0.4-0.4-0.9-0.6-1.5-0.6c-0.3,0-1.3,0.1-3,0.3c-1.1,0.2-2.1,0.3-3.2,0.5C209.4,171.6,209.4,173.3,209.4,175z"/>
		<path fill="#324A5E" d="M230,184c0-5.5,0-11,0-16.6c-2,0.2-4,0.4-6,0.6c0-1.1,0-2.2,0-3.4c5.3-0.6,10.7-1,16-1.3
			c0,1.1,0,2.2,0,3.4c-2,0.1-4,0.2-6,0.4c0,5.5,0,11,0,16.6C232.8,183.8,231.4,183.9,230,184z"/>
		<path fill="#324A5E" d="M242.6,183.2c0-6.7,0-13.3,0-19.9c1.4-0.1,2.7-0.1,4.1-0.2c0,6.6,0,13.3,0,19.9
			C245.3,183.1,243.9,183.2,242.6,183.2z"/>
		<path fill="#324A5E" d="M250.6,183c0-6.6,0-13.3,0-19.9c4.6-0.1,9.2-0.1,13.8,0.1c0,1.1,0,2.2,0,3.4c-3.3-0.1-6.5-0.1-9.8-0.1
			c0,1.6,0,3.1,0,4.7c2.8,0,5.6,0,8.4,0.1c0,1.1,0,2.2,0,3.4c-2.8-0.1-5.6-0.1-8.4-0.1c0,2.8,0,5.7,0,8.5
			C253.3,182.9,251.9,182.9,250.6,183z"/>
		<path fill="#324A5E" d="M267.6,183.1c0-6.6,0-13.3,0-19.9c1.4,0.1,2.7,0.1,4.1,0.2c0,6.6,0,13.3,0,19.9
			C270.3,183.2,269,183.2,267.6,183.1z"/>
		<path fill="#324A5E" d="M288.4,177.3c1.3,0.6,2.6,1.1,3.9,1.7c-0.6,2.1-1.6,3.6-3,4.5c-1.4,0.9-3.2,1.2-5.3,1
			c-2.7-0.2-4.9-1.3-6.6-3.2c-1.7-1.9-2.6-4.5-2.6-7.6c0-3.3,0.9-5.9,2.6-7.6c1.7-1.7,4-2.5,6.8-2.2c2.5,0.2,4.5,1.2,6,2.8
			c0.9,0.9,1.6,2.3,2.1,3.9c-1.3,0.2-2.7,0.3-4,0.5c-0.2-1.1-0.7-1.9-1.5-2.6c-0.8-0.7-1.7-1.1-2.7-1.2c-1.5-0.1-2.7,0.3-3.6,1.3
			c-0.9,1-1.4,2.7-1.4,5c0,2.5,0.5,4.4,1.4,5.5c0.9,1.1,2.1,1.8,3.6,1.9c1.1,0.1,2-0.2,2.8-0.8C287.5,179.7,288.1,178.7,288.4,177.3
			z"/>
		<path fill="#324A5E" d="M313.8,188.4c-1.5-0.3-2.9-0.6-4.4-0.8c-0.6-1.6-1.2-3.2-1.7-4.8c-2.7-0.5-5.3-0.9-8-1.3
			c-0.6,1.4-1.1,2.9-1.7,4.3c-1.4-0.2-2.9-0.4-4.3-0.6c2.6-6.3,5.2-12.6,7.8-18.9c1.4,0.2,2.8,0.4,4.3,0.7
			C308.5,174.2,311.2,181.3,313.8,188.4z M306.4,179.2c-0.9-2.6-1.8-5.2-2.8-7.9c-0.9,2.3-1.8,4.7-2.7,7
			C302.8,178.6,304.6,178.9,306.4,179.2z"/>
		<path fill="#324A5E" d="M318.4,189.4c0-5.5,0-11,0-16.6c-2-0.4-3.9-0.8-5.9-1.2c0-1.1,0-2.2,0-3.4c5.3,1,10.5,2.1,15.8,3.4
			c0,1.1,0,2.2,0,3.4c-1.9-0.5-3.9-0.9-5.9-1.4c0,5.5,0,11,0,16.6C321.1,189.9,319.7,189.6,318.4,189.4z"/>
		<path fill="#324A5E" d="M330.8,192.2c0-6.7,0-13.3,0-19.9c4.9,1.2,9.7,2.6,14.5,4.1c0,1.1,0,2.2,0,3.4c-3.5-1.1-7-2.1-10.6-3
			c0,1.5,0,2.9,0,4.4c3.3,0.9,6.6,1.8,9.8,2.8c0,1.1,0,2.2,0,3.4c-3.3-1-6.5-1.9-9.8-2.8c0,1.8,0,3.6,0,5.4c3.7,1,7.3,2,10.9,3.1
			c0,1.1,0,2.2,0,3.4C340.8,194.9,335.8,193.5,330.8,192.2z"/>
		<rect x="319.3" y="221.1" fill="#324A5E" width="81.1" height="3.9"/>
		<rect x="111.5" y="221.1" fill="#324A5E" width="83.2" height="3.9"/>
		<rect x="276.7" y="337.1" fill="#324A5E" width="123.8" height="3.9"/>
		<rect x="111.5" y="337.1" fill="#324A5E" width="122.7" height="3.9"/>
		<polygon fill="#F1543F" points="335.6,208.9 178.4,208.9 192,223.1 178.4,237.2 335.6,237.2 322,223.1 		"/>
		<rect x="217.7" y="246" fill="#ACB3BA" width="76.3" height="3.9"/>
		<rect x="154.3" y="261.1" fill="#ACB3BA" width="203.5" height="3.9"/>
		<rect x="154.3" y="276.3" fill="#ACB3BA" width="203.5" height="3.9"/>
		<rect x="154.3" y="291.4" fill="#ACB3BA" width="203.5" height="3.9"/>
		<rect x="154.3" y="306.5" fill="#ACB3BA" width="203.5" height="3.9"/>
		<path fill="#FFFFFF" d="M199.6,228.4v-10.7h3.5c1.3,0,2.2,0.1,2.6,0.2c0.6,0.2,1.1,0.5,1.5,1c0.4,0.5,0.6,1.2,0.6,2.1
			c0,0.7-0.1,1.2-0.4,1.7c-0.2,0.4-0.5,0.8-0.9,1.1c-0.4,0.3-0.7,0.4-1.1,0.5c-0.5,0.1-1.3,0.2-2.2,0.2h-1.4v4H199.6z M201.8,219.5
			v3h1.2c0.8,0,1.4-0.1,1.7-0.2c0.3-0.1,0.5-0.3,0.7-0.5c0.2-0.2,0.2-0.5,0.2-0.8c0-0.4-0.1-0.7-0.3-1c-0.2-0.3-0.5-0.4-0.9-0.5
			c-0.3,0-0.8-0.1-1.5-0.1H201.8z"/>
		<path fill="#FFFFFF" d="M209.6,228.4v-10.7h7.9v1.8h-5.8v2.4h5.4v1.8h-5.4v2.9h6v1.8H209.6z"/>
		<path fill="#FFFFFF" d="M219.5,228.4v-10.7h4.5c1.1,0,2,0.1,2.5,0.3c0.5,0.2,0.9,0.5,1.2,1c0.3,0.5,0.5,1,0.5,1.7
			c0,0.8-0.2,1.5-0.7,2c-0.5,0.5-1.2,0.9-2.1,1c0.5,0.3,0.8,0.6,1.2,0.9c0.3,0.3,0.7,0.9,1.2,1.7l1.3,2.1h-2.6l-1.6-2.3
			c-0.6-0.8-0.9-1.3-1.1-1.6c-0.2-0.2-0.4-0.4-0.6-0.4c-0.2-0.1-0.6-0.1-1.1-0.1h-0.4v4.4H219.5z M221.7,222.2h1.6
			c1,0,1.7,0,1.9-0.1c0.3-0.1,0.5-0.2,0.6-0.5c0.1-0.2,0.2-0.5,0.2-0.8c0-0.4-0.1-0.6-0.3-0.9c-0.2-0.2-0.5-0.4-0.8-0.4
			c-0.2,0-0.7,0-1.6,0h-1.7V222.2z"/>
		<path fill="#FFFFFF" d="M229.7,224.9l2.1-0.2c0.1,0.7,0.4,1.2,0.8,1.5c0.4,0.3,0.9,0.5,1.6,0.5c0.7,0,1.2-0.1,1.6-0.4
			c0.4-0.3,0.5-0.6,0.5-1c0-0.3-0.1-0.5-0.2-0.6c-0.1-0.2-0.4-0.3-0.8-0.5c-0.3-0.1-0.8-0.2-1.7-0.5c-1.2-0.3-2-0.6-2.4-1.1
			c-0.7-0.6-1-1.3-1-2.1c0-0.5,0.2-1.1,0.5-1.5c0.3-0.5,0.7-0.8,1.3-1.1s1.3-0.4,2.1-0.4c1.3,0,2.3,0.3,3,0.9c0.7,0.6,1,1.4,1.1,2.3
			l-2.2,0.1c-0.1-0.5-0.3-0.9-0.6-1.2c-0.3-0.2-0.8-0.4-1.4-0.4c-0.6,0-1.1,0.1-1.5,0.4c-0.2,0.2-0.3,0.4-0.3,0.7
			c0,0.3,0.1,0.5,0.3,0.6c0.3,0.2,0.9,0.5,2,0.7c1,0.2,1.8,0.5,2.3,0.8c0.5,0.3,0.9,0.6,1.2,1.1c0.3,0.5,0.4,1,0.4,1.7
			c0,0.6-0.2,1.2-0.5,1.7c-0.3,0.5-0.8,0.9-1.4,1.2c-0.6,0.3-1.4,0.4-2.3,0.4c-1.3,0-2.4-0.3-3.1-0.9
			C230.3,227,229.8,226.1,229.7,224.9z"/>
		<path fill="#FFFFFF" d="M240.2,228.4v-10.7h7.9v1.8h-5.8v2.4h5.4v1.8h-5.4v2.9h6v1.8H240.2z"/>
		<path fill="#FFFFFF" d="M250.1,228.4v-10.7h2.1l4.4,7.1v-7.1h2v10.7h-2.2l-4.3-7v7H250.1z"/>
		<path fill="#FFFFFF" d="M263.3,228.4v-8.9h-3.2v-1.8h8.5v1.8h-3.2v8.9H263.3z"/>
		<path fill="#FFFFFF" d="M270,228.4v-10.7h7.9v1.8h-5.8v2.4h5.4v1.8h-5.4v2.9h6v1.8H270z"/>
		<path fill="#FFFFFF" d="M279.9,217.7h3.9c0.9,0,1.6,0.1,2,0.2c0.6,0.2,1.2,0.5,1.6,1c0.4,0.5,0.8,1,1,1.7c0.2,0.7,0.3,1.5,0.3,2.5
			c0,0.9-0.1,1.6-0.3,2.3c-0.3,0.8-0.6,1.4-1.1,1.9c-0.4,0.4-0.9,0.6-1.5,0.9c-0.5,0.2-1.1,0.2-1.9,0.2h-4V217.7z M282,219.5v7.1
			h1.6c0.6,0,1,0,1.3-0.1c0.3-0.1,0.6-0.2,0.9-0.4c0.2-0.2,0.4-0.6,0.6-1c0.1-0.5,0.2-1.1,0.2-2c0-0.8-0.1-1.5-0.2-1.9
			c-0.1-0.4-0.3-0.8-0.6-1c-0.3-0.2-0.6-0.4-1-0.5c-0.3-0.1-0.9-0.1-1.8-0.1H282z"/>
		<path fill="#FFFFFF" d="M294.8,217.7h4.3c0.8,0,1.5,0,1.9,0.1c0.4,0.1,0.8,0.2,1.1,0.4c0.3,0.2,0.6,0.5,0.8,0.9
			c0.2,0.4,0.3,0.8,0.3,1.2c0,0.5-0.1,1-0.4,1.4c-0.3,0.4-0.6,0.7-1.1,0.9c0.6,0.2,1.1,0.5,1.5,1s0.5,1,0.5,1.6c0,0.5-0.1,1-0.3,1.4
			c-0.2,0.5-0.5,0.8-0.9,1.1c-0.4,0.3-0.9,0.4-1.4,0.5c-0.4,0-1.2,0.1-2.6,0.1h-3.6V217.7z M296.9,219.5v2.5h1.4c0.8,0,1.4,0,1.6,0
			c0.4,0,0.7-0.2,0.9-0.4c0.2-0.2,0.3-0.5,0.3-0.8c0-0.3-0.1-0.6-0.3-0.8c-0.2-0.2-0.5-0.3-0.8-0.4c-0.2,0-0.8,0-1.8,0H296.9z
			 M296.9,223.7v2.8h2c0.8,0,1.3,0,1.5-0.1c0.3-0.1,0.6-0.2,0.8-0.4c0.2-0.2,0.3-0.5,0.3-0.9c0-0.3-0.1-0.6-0.2-0.8
			c-0.2-0.2-0.4-0.4-0.7-0.5c-0.3-0.1-0.9-0.2-1.9-0.2H296.9z"/>
		<path fill="#FFFFFF" d="M308.3,228.4v-4.5l-3.9-6.2h2.5l2.5,4.2l2.5-4.2h2.5l-3.9,6.2v4.5H308.3z"/>
		<path fill="#F1543F" d="M277.2,335.5l-3.3-3.3c-0.2-0.2-0.4-0.5-0.4-0.9v-4.7c0-2.8-2.3-5.1-5.1-5.1h-4.7c-0.3,0-0.6-0.1-0.9-0.4
			l-3.3-3.3c-2-2-5.2-2-7.2,0l-3.3,3.3c-0.2,0.2-0.5,0.4-0.9,0.4h-4.7c-2.8,0-5.1,2.3-5.1,5.1v4.7c0,0.3-0.1,0.6-0.4,0.9l-3.3,3.3
			c-2,2-2,5.2,0,7.2l3.3,3.3c0.2,0.2,0.4,0.5,0.4,0.9v4.7c0,2.8,2.3,5.1,5.1,5.1h4.7c0.3,0,0.6,0.1,0.9,0.4l3.3,3.3
			c1,1,2.3,1.5,3.6,1.5c1.3,0,2.6-0.5,3.6-1.5l3.3-3.3c0.2-0.2,0.5-0.4,0.9-0.4h4.7c2.8,0,5.1-2.3,5.1-5.1v-4.7
			c0-0.3,0.1-0.6,0.4-0.9l3.3-3.3C279.1,340.7,279.1,337.5,277.2,335.5z"/>
	</g>
</g>
</svg>
