<?xml version="1.0" encoding="utf-8"?>
<!-- Generator: Adobe Illustrator 18.0.0, SVG Export Plug-In . SVG Version: 6.00 Build 0)  -->
<!DOCTYPE svg PUBLIC "-//W3C//DTD SVG 1.1//EN" "http://www.w3.org/Graphics/SVG/1.1/DTD/svg11.dtd">
<svg version="1.1" id="Layer_1" xmlns="http://www.w3.org/2000/svg" xmlns:xlink="http://www.w3.org/1999/xlink" x="0px" y="0px"
	 viewBox="0 0 128 128" enable-background="new 0 0 128 128" xml:space="preserve">
<g>
	<circle fill="#84DBFF" cx="64" cy="64" r="63.5"/>
	<path fill="#F1543F" d="M29.6,69.1l2.8,27.7c0.4,4.5,4.3,8,8.8,8h45.7c4.6,0,8.4-3.4,8.8-8l2.8-27.7H29.6z"/>
	<path fill="#FF7058" d="M36.3,69.1V52.8c0-15.3,12.4-27.7,27.7-27.7s27.7,12.4,27.7,27.7v16.3h6.7V52.8c0-19-15.4-34.4-34.4-34.4h0
		c-19,0-34.4,15.4-34.4,34.4v16.3H36.3z"/>
	<g>
		<path fill="#E6E9EE" d="M100.9,69.8c2.8,1.7,4.4,4.3,3.5,6.1c-0.9,1.8-3.9,2.1-7,0.8c0.8,3.2,0.1,6.1-1.8,6.8
			c-1.9,0.6-4.2-1.3-5.5-4.3c-1.7,2.8-4.3,4.4-6.1,3.5c-1.8-0.9-2.1-3.9-0.8-7c-3.2,0.8-6.1,0.1-6.8-1.8c-0.6-1.9,1.3-4.2,4.3-5.5
			c-2.8-1.7-4.4-4.3-3.5-6.1c0.9-1.8,3.9-2.1,7-0.8c-0.8-3.2-0.1-6.1,1.8-6.8c1.9-0.6,4.2,1.3,5.5,4.3c1.7-2.8,4.3-4.4,6.1-3.5
			c1.8,0.9,2.1,3.9,0.8,7c3.2-0.8,6.1-0.1,6.8,1.8C105.9,66.2,103.9,68.6,100.9,69.8z"/>
		<circle fill="#324A5E" cx="90.8" cy="69.1" r="3.9"/>
		<path fill="#E6E9EE" d="M47.2,69.8c2.8,1.7,4.4,4.3,3.5,6.1c-0.9,1.8-3.9,2.1-7,0.8c0.8,3.2,0.1,6.1-1.8,6.8
			c-1.9,0.6-4.2-1.3-5.5-4.3c-1.7,2.8-4.3,4.4-6.1,3.5c-1.8-0.9-2.1-3.9-0.8-7c-3.2,0.8-6.1,0.1-6.8-1.8c-0.6-1.9,1.3-4.2,4.3-5.5
			c-2.8-1.7-4.4-4.3-3.5-6.1c0.9-1.8,3.9-2.1,7-0.8c-0.8-3.2-0.1-6.1,1.8-6.8c1.9-0.6,4.2,1.3,5.5,4.3c1.7-2.8,4.3-4.4,6.1-3.5
			c1.8,0.9,2.1,3.9,0.8,7c3.2-0.8,6.1-0.1,6.8,1.8C52.2,66.2,50.3,68.6,47.2,69.8z"/>
		<circle fill="#324A5E" cx="37.2" cy="69.1" r="3.9"/>
		<path fill="#FFFFFF" d="M76.2,73.2c3.2,3.1,4.4,7,2.7,9.1c-1.7,2.1-5.8,1.6-9.4-1c0.1,4.5-1.8,8.1-4.5,8.3c-2.7,0.2-5.2-3-5.9-7.4
			c-3.1,3.2-7,4.4-9.1,2.7c-2.1-1.7-1.5-5.8,1-9.4c-4.5,0.1-8.1-1.8-8.3-4.5c-0.2-2.7,3-5.2,7.4-5.9c-3.2-3.1-4.4-7-2.7-9.1
			c1.7-2.1,5.8-1.5,9.4,1c-0.1-4.5,1.8-8.1,4.5-8.3c2.7-0.2,5.2,3,5.9,7.4c3.1-3.2,7-4.4,9.1-2.7c2.1,1.7,1.5,5.8-1,9.4
			c4.5-0.1,8.1,1.8,8.3,4.5C83.8,69.9,80.6,72.4,76.2,73.2z"/>
		<circle fill="#324A5E" cx="63.2" cy="69.1" r="5.3"/>
	</g>
</g>
</svg>
