<?xml version="1.0" encoding="utf-8"?>
<!-- Generator: Adobe Illustrator 18.0.0, SVG Export Plug-In . SVG Version: 6.00 Build 0)  -->
<!DOCTYPE svg PUBLIC "-//W3C//DTD SVG 1.1//EN" "http://www.w3.org/Graphics/SVG/1.1/DTD/svg11.dtd">
<svg version="1.1" id="Layer_1" xmlns="http://www.w3.org/2000/svg" xmlns:xlink="http://www.w3.org/1999/xlink" x="0px" y="0px"
	 viewBox="0 0 128 128" enable-background="new 0 0 128 128" xml:space="preserve">
<g>
	<circle fill="#FD8469" cx="64" cy="64" r="63"/>
	<g>
		<path fill="#FFD05B" d="M99.1,64c8.7,12.1,3.8,23-10.3,24.8c-1.8,14-12.7,18.9-24.8,10.3c-12.1,8.7-23,3.8-24.8-10.3
			C25.2,87,20.3,76.1,28.9,64c-8.7-12.1-3.8-23,10.3-24.8C41,25.2,51.9,20.3,64,28.9c12.1-8.7,23-3.8,24.8,10.3
			C102.8,41,107.7,51.9,99.1,64z"/>
		<circle fill="#FFFFFF" cx="64" cy="64" r="27.2"/>
		<path fill="#F1543F" d="M64,52.3c3.4-4.2,8.1-5.1,11.5-3.8c8.3,3.1,10.2,14.9,3.1,22.3C64,86,64,86,64,86s0,0-14.7-15.3
			c-7.1-7.4-5.2-19.2,3.1-22.3C55.9,47.2,60.6,48.1,64,52.3z"/>
	</g>
</g>
</svg>
