<?xml version="1.0" encoding="utf-8"?>
<!-- Generator: Adobe Illustrator 18.0.0, SVG Export Plug-In . SVG Version: 6.00 Build 0)  -->
<!DOCTYPE svg PUBLIC "-//W3C//DTD SVG 1.1//EN" "http://www.w3.org/Graphics/SVG/1.1/DTD/svg11.dtd">
<svg version="1.1" id="Layer_1" xmlns="http://www.w3.org/2000/svg" xmlns:xlink="http://www.w3.org/1999/xlink" x="0px" y="0px"
	 viewBox="0 0 128 128" enable-background="new 0 0 128 128" xml:space="preserve">
<g>
	<circle fill="#FD8469" cx="64" cy="64" r="63.5"/>
	<path fill="#2C9984" d="M92.9,49.9c-0.2,0.1-17.6,11.9-27.4,77.6c-0.5,0-1,0-1.5,0c-0.6,0-1.1,0-1.7,0c0.1-0.9,0.1-1.9,0.2-2.8
		c-3.6-32-23.3-74-23.5-74.5l1.8-0.9C41.6,51,57.3,84.5,63,114.5c0.8-22.3,0.5-54.9,0-75.1l2,0c0.1,2.7,1.1,51.3-0.3,79.8
		c10.1-59.8,26.3-70.5,27.1-71L92.9,49.9z"/>
	<path fill="#E6E9EE" d="M105.1,50.9c3.4,2.4,5.2,5.9,3.9,8c-1.3,2.2-5.1,2.3-8.9,0.4c0.7,4.1-0.5,7.8-2.9,8.4c-2.4,0.6-5.3-2-6.6-6
		c-2.4,3.5-5.9,5.2-8,3.9c-2.2-1.3-2.3-5.1-0.4-8.9c-4.1,0.7-7.8-0.5-8.4-2.9c-0.6-2.4,2-5.3,6-6.6c-3.4-2.4-5.2-5.9-3.9-8
		c1.3-2.2,5.1-2.3,8.9-0.4c-0.7-4.1,0.5-7.8,2.9-8.4c2.5-0.6,5.3,2,6.6,6c2.4-3.4,5.9-5.2,8-3.9c2.2,1.3,2.3,5.1,0.4,8.9
		c4.1-0.7,7.8,0.5,8.4,2.9C111.7,46.8,109.1,49.6,105.1,50.9z"/>
	<circle fill="#FFD05B" cx="92.4" cy="49.1" r="5"/>
	<path fill="#E6E9EE" d="M52.6,51.5c3.4,2.4,5.2,5.9,3.9,8c-1.3,2.2-5.1,2.3-8.9,0.4c0.7,4.1-0.5,7.8-2.9,8.4c-2.4,0.6-5.3-2-6.6-6
		c-2.4,3.5-5.9,5.2-8,3.9c-2.2-1.3-2.3-5.1-0.4-8.9c-4.1,0.7-7.8-0.5-8.4-2.9c-0.6-2.4,2-5.3,6-6.6c-3.4-2.4-5.2-5.9-3.9-8
		c1.3-2.2,5.1-2.3,8.9-0.4c-0.7-4.1,0.5-7.8,2.9-8.4c2.5-0.6,5.3,2,6.6,6c2.4-3.4,5.9-5.2,8-3.9c2.2,1.3,2.3,5.1,0.4,8.9
		c4.1-0.7,7.8,0.5,8.4,2.9C59.2,47.4,56.6,50.2,52.6,51.5z"/>
	<circle fill="#FFD05B" cx="39.9" cy="49.7" r="5"/>
	<path fill="#FFFFFF" d="M78.2,41.5c3.8,2.7,5.7,6.5,4.3,8.9c-1.4,2.4-5.7,2.6-9.9,0.5c0.8,4.6-0.5,8.7-3.3,9.3
		c-2.7,0.7-5.8-2.2-7.3-6.7c-2.7,3.8-6.5,5.7-8.9,4.3c-2.4-1.4-2.5-5.7-0.5-9.9c-4.6,0.8-8.6-0.5-9.3-3.3c-0.7-2.7,2.2-5.8,6.7-7.3
		c-3.8-2.7-5.7-6.5-4.3-8.9c1.4-2.4,5.7-2.5,9.9-0.5c-0.8-4.6,0.5-8.6,3.2-9.3c2.7-0.7,5.8,2.2,7.3,6.7c2.7-3.8,6.5-5.7,8.9-4.3
		c2.4,1.4,2.5,5.7,0.5,9.9c4.6-0.8,8.6,0.5,9.3,3.2C85.5,36.9,82.6,40,78.2,41.5z"/>
	<circle fill="#FFD05B" cx="64.1" cy="39.4" r="5.5"/>
</g>
</svg>
