<?xml version="1.0" encoding="UTF-8" standalone="no"?>
<svg
   xmlns:dc="http://purl.org/dc/elements/1.1/"
   xmlns:cc="http://creativecommons.org/ns#"
   xmlns:rdf="http://www.w3.org/1999/02/22-rdf-syntax-ns#"
   xmlns:svg="http://www.w3.org/2000/svg"
   xmlns="http://www.w3.org/2000/svg"
   viewBox="0 0 201.56 43.573334"
   height="43.573334"
   width="201.56"
   xml:space="preserve"
   id="svg2"
   version="1.1"><metadata
     id="metadata8"><rdf:RDF><cc:Work
         rdf:about=""><dc:format>image/svg+xml</dc:format><dc:type
           rdf:resource="http://purl.org/dc/dcmitype/StillImage" /></cc:Work></rdf:RDF></metadata><defs
     id="defs6" /><g
     transform="matrix(1.3333333,0,0,-1.3333333,0,43.573333)"
     id="g10"><g
       transform="scale(0.1)"
       id="g12"><path
         id="path14"
         style="fill:#a7a5a6;fill-opacity:1;fill-rule:nonzero;stroke:none"
         d="m 84.8867,309.238 c 8.9688,0 15.0742,-1.191 18.2973,-3.558 3.261,-2.383 4.863,-5.778 4.863,-10.239 0,-5.625 -1.27,-9.414 -3.785,-11.289 -2.614,-1.964 -5.3518,-2.879 -8.4807,-2.879 -4.5,0 -8.3868,2.051 -11.8086,6.184 -3.3321,4.16 -7.8594,6.258 -13.4766,6.258 -12.918,0 -21.1406,-9.516 -24.5273,-28.469 -3.2969,-18.945 -4.9961,-37.117 -4.9961,-54.601 0,-2.993 -0.0938,-5.68 -0.2579,-8.032 -0.1679,-2.359 0.2579,-3.574 1.043,-3.574 h 32.9453 c 1.6992,0 2.7774,-0.434 3.168,-1.309 0.3945,-0.898 0.6562,-2.687 0.6562,-5.292 0,-3.59 -0.3632,-5.793 -1.0468,-6.696 C 76.7344,184.844 75,184.438 72.1641,184.438 H 45.9688 c -2.5118,0 -3.8555,-1.989 -3.9532,-6.02 -0.1289,-4.016 -0.2578,-7.777 -0.2578,-11.352 V 58.2031 c 0,-5.9258 1.0078,-10.1054 3,-12.6367 1.957,-2.5312 5.8711,-4.6758 11.7735,-6.4062 1.4101,-0.3321 3.625,-0.5274 6.5937,-0.6914 2.9414,-0.1485 4.4375,-1.5665 4.4375,-4.1836 0,-2.4219 -1.2383,-3.8829 -3.6562,-4.4805 -2.3477,-0.5586 -4.3985,-0.8789 -6.0704,-0.8789 -2.8359,0 -6.3906,0.2461 -10.7617,0.6758 -4.3672,0.4257 -8.8086,0.6797 -13.3437,0.6797 -4.4688,0 -9.3242,-0.254 -14.4844,-0.6797 -5.2539,-0.4297 -8.8359,-0.6758 -10.83204,-0.6758 -2.18359,0 -4.17578,0.5078 -5.86328,1.5703 C 0.847656,31.5039 0,32.6484 0,33.8086 c 0,2.6758 0.816406,4.0937 2.32031,4.1875 1.53125,0.1875 3.32422,0.5508 5.31641,1.1641 5.31248,1.4921 8.83598,3.6211 10.50388,6.4062 1.7266,2.8242 2.5078,7.168 2.5078,13.1055 V 172.426 c 0,4.461 -1.0781,7.324 -3.3593,8.66 -2.25,1.363 -4.5078,2.152 -6.7227,2.453 -3.09765,0.899 -5.31249,1.383 -6.55859,1.52 -1.23437,0.168 -1.88281,1.586 -1.88281,4.257 0,1.789 0.35156,2.778 1.03906,3.122 0.6875,0.238 2.05469,0.82 4.01172,1.734 1.99219,1.191 4.34372,1.976 7.17972,2.43 2.7695,0.5 4.6328,1.851 5.5117,4.234 0.5234,1.777 1.4023,8.668 2.6758,20.68 1.3359,12.015 2.6406,21.531 4.0429,28.675 1.1133,7.086 6.2032,18.676 15.1719,34.86 9.0313,16.133 23.4219,24.187 43.1289,24.187" /><path
         id="path16"
         style="fill:#a7a5a6;fill-opacity:1;fill-rule:nonzero;stroke:none"
         d="m 190.781,11.4531 c 1.367,-0.2812 2.676,-0.6406 3.785,-1.1406 1.137,-0.44922 1.821,-1.66016 2.153,-3.75781 0.515,-2.04297 0.062,-3.52735 -1.531,-4.21094 -1.504,-0.77344 -2.708,-1.10547 -3.555,-1.10547 -5.094,0 -9.895,0.20703 -14.391,0.6875 -4.472,0.41797 -8.808,0.63281 -13.082,0.63281 -5.058,0 -10.215,-0.21484 -15.394,-0.63281 -5.192,-0.48047 -10.614,-0.6875 -16.286,-0.6875 -0.781,0 -1.917,0.28516 -3.324,0.91797 -1.437,0.51172 -1.961,1.875 -1.699,3.98828 0.262,2.34375 1.305,3.71875 3.004,4.16797 1.633,0.5 3.195,0.8594 4.562,1.1406 5.68,1.4571 9.825,3.5664 12.559,6.2344 2.613,2.6172 3.984,9.8711 3.984,21.7383 V 218.883 c 0,4.152 -2.605,7.195 -7.898,9.144 -5.117,1.891 -7.762,3.782 -7.762,5.504 0,0.961 0.168,1.899 0.426,2.887 0.262,1.055 1.012,1.738 2.09,2.062 l 24.465,11.067 c 0.847,0.328 1.894,0.476 3.004,0.476 1.105,0 2.089,0 2.933,0 1.696,0 2.68,-0.843 2.938,-2.48 0.324,-1.621 0.426,-3.293 0.426,-5.082 0,-4.473 -0.102,-9.031 -0.2,-13.824 -0.164,-4.711 -0.226,-9.606 -0.226,-14.621 V 27.4492 c 0,-5.0469 1.597,-8.5429 4.629,-10.4453 3.129,-1.9336 7.925,-3.7695 14.39,-5.5508" /><path
         id="path18"
         style="fill:#a7a5a6;fill-opacity:1;fill-rule:nonzero;stroke:none"
         d="m 298.793,60.7422 c 10.672,0 19.348,6.9922 26.168,20.8789 6.754,13.9141 10.105,31.4259 10.105,52.3989 0,13.925 -3.289,28.699 -9.91,44.222 -6.593,15.547 -15.406,23.305 -26.363,23.305 -11.219,0 -20.223,-6.719 -26.781,-20.149 -6.621,-13.492 -9.918,-30.613 -9.918,-51.343 0,-14.496 3.195,-29.664 9.66,-45.512 6.484,-15.8828 15.457,-23.8008 27.039,-23.8008 z m 0.426,150.1798 c 16.312,0 30.277,-7.902 41.98,-23.543 11.723,-15.688 17.492,-33.652 17.492,-53.766 0,-20.16 -4.664,-38.8942 -14.128,-56.2028 -9.391,-17.3125 -24.829,-25.9727 -46.196,-25.9727 -20.844,0 -35.918,8.2031 -45.375,24.6367 -9.461,16.4258 -14.09,35.0118 -14.09,55.7498 0,18.961 4.629,36.903 14.09,53.781 9.457,16.891 24.86,25.317 46.227,25.317" /><path
         id="path20"
         style="fill:#a7a5a6;fill-opacity:1;fill-rule:nonzero;stroke:none"
         d="m 457.945,82.4609 c 2.785,0 6.817,9.6289 11.961,28.7341 5.246,19.114 7.824,29.973 7.824,32.672 0,1.137 -0.347,3.395 -1.031,6.867 -0.722,3.368 -2.32,8.036 -4.84,13.961 -2.839,8.035 -5.414,13.039 -7.832,15.133 -2.382,2.027 -7.918,3.094 -16.625,3.094 -4.535,0 -8.714,-0.473 -12.722,-1.32 -3.879,-0.938 -5.879,-4.004 -5.879,-9.325 0,-1.23 0.101,-2.433 0.433,-3.789 0.329,-1.32 0.516,-2.75 0.809,-4.211 l 25.316,-77.7614 c 0,-0.8906 0.227,-1.789 0.688,-2.6367 0.348,-0.9375 1.016,-1.418 1.898,-1.418 z M 574.391,190.953 c 1.961,0 3.367,-0.215 4.242,-0.672 0.847,-0.465 1.246,-1.332 1.246,-2.484 0,-1.723 -0.399,-2.738 -1.246,-2.875 -0.875,-0.152 -2.153,-0.531 -3.813,-1.102 -2.23,-0.636 -4.41,-2.05 -6.523,-4.472 -2.152,-2.36 -3.895,-6.5 -5.289,-12.446 L 522.945,42.9961 c -0.609,-2.3438 -1.375,-3.9414 -2.382,-4.6758 -0.977,-0.7305 -1.75,-1.1015 -2.305,-1.1015 -1.371,0 -3.297,2.6757 -5.656,7.996 -2.446,5.3204 -5.903,15.5274 -10.399,30.6368 l -13.055,43.5354 c -1.14,1.453 -2.093,2.508 -2.777,3.152 -0.656,0.582 -1.289,0.824 -1.851,0.824 -1.114,0 -2.454,-1.468 -3.79,-4.398 -1.429,-2.977 -3.675,-9.512 -6.769,-19.59 L 455.793,39.4258 c -0.305,-0.3242 -0.637,-0.7539 -1.051,-1.3125 -0.371,-0.586 -1.054,-0.8945 -1.89,-0.8945 -1.446,0 -2.774,0.7773 -4.207,2.4687 -1.411,1.5742 -2.84,4.6758 -4.18,9.0625 l -40.133,119.055 c -2.516,5.359 -4.898,9.109 -6.922,11.336 -2.152,2.257 -4.793,3.629 -7.89,4.234 -1.993,0.586 -3.204,1.129 -3.782,1.547 -0.593,0.414 -0.816,1.418 -0.816,2.875 0,2.113 0.816,3.156 2.578,3.156 1.598,0 3.031,0 4.176,0 3.094,0 8.09,-0.101 14.969,-0.215 6.925,-0.215 21.144,-0.242 42.785,-0.242 20.906,0 35.179,0.027 43.113,0.242 7.871,0.114 13.078,0.215 15.602,0.215 1.164,0 2.242,-0.101 3.343,-0.215 1.141,-0.215 1.672,-1.152 1.672,-2.941 0,-1.152 -0.289,-1.992 -1.043,-2.461 -0.652,-0.414 -1.566,-0.945 -2.73,-1.516 -5.364,-0.281 -9.25,-1.004 -11.559,-1.988 -2.445,-1.078 -3.598,-2.766 -3.598,-5.109 0,-1.203 0.051,-2.422 0.204,-3.559 0.168,-1.219 0.3,-2.844 0.621,-4.906 l 26.191,-83.0314 c 0,-0.918 0.176,-1.8282 0.633,-2.7657 0.457,-0.8398 1.066,-1.3086 1.926,-1.3086 0.836,0 1.461,0.5782 1.824,1.5821 0.484,1.0664 0.684,1.9922 0.684,2.8906 l 23.191,79.961 c 0.254,1.48 0.48,2.836 0.656,4.004 0.129,1.191 0.192,2.355 0.192,3.574 0,3.559 -1.051,6.078 -3.235,7.5 -2.051,1.52 -4.66,2.406 -7.726,2.711 -1.95,0.586 -3.598,0.961 -4.887,1.129 -1.274,0.101 -1.906,1.191 -1.906,3.293 0,1.152 0.586,2.019 1.675,2.484 1.098,0.457 2.707,0.672 4.688,0.672 3.066,0 6.004,-0.101 8.871,-0.215 2.781,-0.215 5.547,-0.242 8.461,-0.242 2.512,0 5.449,0.027 8.797,0.242 3.367,0.114 6.465,0.215 9.301,0.215" /><path
         id="path22"
         style="fill:#a7a5a6;fill-opacity:1;fill-rule:nonzero;stroke:none"
         d="m 665.117,139.402 c 13.504,0 21.926,1.344 25.313,4.235 3.425,2.789 5.097,7.601 5.097,14.371 0,6.547 -2.004,12.09 -5.91,16.722 -3.941,4.567 -8.836,6.872 -14.773,6.872 -11.223,0 -19.832,-5.02 -25.742,-15.118 -5.911,-10.086 -8.848,-17.906 -8.848,-23.582 0,-1.14 1.094,-2.05 3.367,-2.609 2.246,-0.637 9.399,-0.891 21.496,-0.891 z m 4.207,51.551 c 17.485,0 29.934,-6.922 37.387,-20.68 7.469,-13.773 11.18,-24.953 11.18,-33.554 0,-2.942 -0.52,-5.211 -1.536,-6.664 -0.933,-1.485 -3.125,-2.219 -6.484,-2.219 h -71.734 c -0.285,-1.457 -0.52,-3.367 -0.688,-5.559 -0.094,-2.207 -0.183,-4.511 -0.183,-6.886 0,-16.2777 2.531,-31.2308 7.597,-44.8441 5.086,-13.6446 16.895,-20.4571 35.43,-20.4571 9.023,0 15.281,2.8321 18.809,8.4454 3.527,5.6054 6.394,8.4375 8.679,8.4375 1.074,0 2.024,-0.1954 2.707,-0.6836 0.696,-0.4219 1.043,-1.3946 1.043,-2.8907 0,-1.4453 -3.523,-7.1757 -10.523,-17.0976 -7.055,-9.9024 -18.481,-14.8477 -34.192,-14.8477 -16.015,0 -28.769,7.2188 -38.164,21.7617 -9.472,14.5196 -14.132,33.7305 -14.132,57.7032 0,17.488 4.574,35.191 13.695,53.145 9.14,17.921 22.84,26.89 41.109,26.89" /><path
         id="path24"
         style="fill:#a7a5a6;fill-opacity:1;fill-rule:nonzero;stroke:none"
         d="m 842.813,189.586 c 3.105,0.582 6.816,-0.27 11.164,-2.473 4.375,-2.191 6.531,-6.816 6.531,-13.949 0,-7.426 -1.903,-12.23 -5.684,-14.473 -3.828,-2.191 -7.082,-3.296 -9.922,-3.296 -3.359,0 -7.414,1.382 -12.011,4.21 -4.661,2.79 -8.77,4.204 -12.411,4.204 -4.542,0 -7.812,-2.582 -9.738,-7.778 -1.953,-5.195 -2.969,-10.711 -2.969,-16.629 V 49.668 c 0,-6.5313 1.27,-11.6719 3.79,-15.3321 2.507,-3.7226 9.89,-6.4531 21.953,-8.2421 0.593,0 1.379,-0.2149 2.578,-0.6836 1.086,-0.4102 1.66,-1.836 1.66,-4.1993 0,-2.0507 -0.711,-3.4843 -2.149,-4.207 -1.328,-0.7422 -3.093,-1.1133 -5.078,-1.1133 -4.968,0 -9.863,0.2305 -14.504,0.6407 -4.628,0.4726 -9.097,0.6875 -13.257,0.6875 -4.512,0 -10.508,-0.2149 -17.993,-0.6875 -7.5,-0.4102 -13.855,-0.6407 -19.136,-0.6407 -1.211,0 -2.778,0.3203 -4.895,0.918 -2.097,0.5547 -3.215,2.0508 -3.215,4.4023 0,1.1914 0.5,2.2579 1.313,3.1446 0.789,0.8398 1.695,1.4648 2.547,1.7383 8.125,1.4648 14.383,3.5546 18.73,6.2304 4.363,2.6953 6.524,10.9883 6.524,24.8946 v 79.5002 c 0,12.129 -2.051,18.906 -6.27,20.199 -4.238,1.316 -6.328,4.055 -6.328,8.262 0,1.722 1.492,3.308 4.668,4.664 3.035,1.304 6.023,3.418 8.809,6.41 4.199,5.047 7.414,9.441 9.523,13.332 2.156,3.852 4.312,5.777 6.492,5.777 1.445,0 2.481,-0.32 3.203,-0.89 0.684,-0.582 1.035,-1.797 1.035,-3.52 v -10.289 c 0,-3.207 -0.019,-5.726 -0.183,-7.5 -0.168,-1.801 0.308,-2.691 1.453,-2.691 3.176,-0.246 7.742,2.636 13.906,8.668 6.192,6.086 12.821,9.554 19.864,10.445" /><path
         id="path26"
         style="fill:#36ab9c;fill-opacity:1;fill-rule:nonzero;stroke:none"
         d="m 1017.97,40.793 c 1.7,-1.2032 3.36,-2.0547 5.06,-2.4727 1.66,-0.418 2.67,-1.5117 3,-3.3008 -0.33,-1.7968 -1.34,-3.0664 -3,-3.7968 -1.7,-0.7735 -3.24,-1.1446 -4.64,-1.1446 -3.65,0 -7.37,0.3711 -11.19,1.1446 -3.81,0.7304 -7.669,1.1015 -11.587,1.1015 -3.086,0 -6.687,-0.3711 -10.816,-1.1015 -4.055,-0.7735 -7.602,-1.1446 -10.703,-1.1446 -1.184,0 -2.285,0.3242 -3.418,0.9375 -1.125,0.5391 -1.699,1.9063 -1.699,4.0039 0,1.7891 0.64,2.7618 1.941,3.0938 1.277,0.3047 3.437,1.164 6.531,2.6797 3.071,0.8672 5.344,3.5703 6.731,7.957 1.386,4.4648 2.136,9.6172 2.136,15.5664 v 76.3986 c 0,8.015 -2.468,14.426 -7.398,19.367 -4.895,4.828 -11.191,7.277 -18.82,7.277 -10.047,0 -18.02,-3.242 -23.555,-9.757 -5.676,-6.504 -8.445,-13.508 -8.445,-20.883 V 55.8984 c 0,-5.6445 0.867,-9.4336 2.73,-11.3203 1.828,-1.9609 5.551,-3.2187 11.164,-3.7851 3.946,-0.3242 6.692,-0.7539 8.184,-1.3672 1.601,-0.5977 2.324,-1.8985 2.324,-3.9961 0,-2.3711 -0.723,-3.875 -2.324,-4.4141 -1.492,-0.6133 -3.391,-0.9375 -5.633,-0.9375 -2.844,0 -6.605,0.3711 -11.164,1.1446 -4.668,0.7304 -8.977,1.1015 -12.91,1.1015 -4.453,0 -9.239,-0.3711 -14.168,-1.1015 -4.895,-0.7735 -9.453,-1.1446 -13.703,-1.1446 -1.368,0 -2.664,0.3711 -3.789,1.1446 -1.106,0.7304 -1.7,2.1562 -1.7,4.207 0,1.7891 0.536,3.0391 1.512,3.7812 0.981,0.7618 2.277,1.2579 3.977,1.5821 5.617,0.8672 9.453,3.1523 11.457,6.8047 1.914,3.7421 2.925,8.1562 2.925,13.1445 V 295.328 c 0,3.258 -2.632,5.688 -7.832,7.309 -5.183,1.621 -7.832,3.629 -7.832,5.98 0,1.524 0.247,2.742 0.704,3.781 0.351,1.051 0.707,1.735 1.039,2.051 0.781,0.594 5.574,2.789 14.129,6.617 8.535,3.821 13.41,5.774 14.542,5.774 2.508,0 4.11,-1.086 4.833,-3.32 0.683,-2.192 1.113,-5.704 1.113,-10.438 V 165.586 c 0,-1.168 -0.137,-2.309 -0.266,-3.297 -0.164,-1.062 0.102,-1.582 0.688,-1.582 1.922,0 6.132,3.988 12.656,12.023 6.465,7.934 16.734,11.989 30.828,11.989 18.496,0 29.478,-7.262 32.918,-21.793 3.36,-14.496 5.06,-24.598 5.06,-30.211 V 62.5195 c 0,-7.9882 0.48,-13.3867 1.66,-16.2187 1.13,-2.7852 3.33,-4.6406 6.75,-5.5078" /><path
         id="path28"
         style="fill:#36ab9c;fill-opacity:1;fill-rule:nonzero;stroke:none"
         d="m 1103.6,57.6484 c 11.25,0 19.29,4.4297 23.92,13.3282 4.64,8.8789 6.91,16.9062 6.91,23.9726 v 19.1368 c 0,6.754 -0.35,10.914 -1.03,12.434 -0.76,1.484 -1.81,2.214 -3.23,2.214 -0.83,0 -8.39,-3.457 -22.71,-10.453 -14.39,-6.98 -21.53,-19.4724 -21.53,-37.5271 0,-5.0586 1.39,-10.1289 4.21,-15.332 2.83,-5.2188 7.29,-7.7735 13.46,-7.7735 z m 72.62,17.793 c 0.85,0 1.93,-0.207 3.17,-0.6953 1.27,-0.4609 1.89,-1.4063 1.89,-2.8828 0,-2.0977 -2.32,-6.6094 -6.94,-13.5352 -4.68,-6.9883 -11.92,-10.4453 -21.73,-10.4453 -5.95,0 -10.68,1.7852 -14.2,5.332 -3.46,3.543 -6.4,7.5274 -8.58,11.9883 -5.35,-6.25 -10.99,-11.3242 -16.93,-15.332 -5.88,-3.9727 -13.77,-6.0039 -23.55,-6.0039 -7.11,0 -13.09,2.2383 -17.98,6.668 -4.91,4.4257 -7.46,12.1328 -7.46,23.1093 0,19.2852 6.94,33.0935 20.74,41.5315 13.77,8.469 21.28,12.828 22.37,13.078 4.81,2.422 9.04,4.297 12.86,5.766 3.82,1.531 7.37,2.851 10.76,3.992 0.6,1.218 1.06,2.703 1.52,4.472 0.39,1.789 0.61,3.739 0.61,5.778 0,11.242 -0.9,20.39 -2.6,27.308 -1.61,6.993 -7.71,10.504 -18.09,10.504 -16.6,0 -24.99,-7.465 -25.12,-22.265 -0.09,-14.809 -5.8,-22.196 -17.09,-22.196 -2.81,0 -4.6,0.871 -5.49,2.66 -0.84,1.786 -1.26,3.989 -1.26,6.688 0,4.117 5.16,13.004 15.62,26.637 10.45,13.609 24.7,20.425 43.04,20.425 15.16,0 24.11,-4.363 26.84,-13.101 2.68,-8.723 3.99,-16.07 3.99,-21.996 V 79.8555 c 0,-2.6758 0.52,-5.3047 1.63,-7.9922 1.2,-2.6524 3.71,-4 7.61,-4 4.82,0 7.81,1.2695 9.12,3.7773 1.24,2.5313 2.99,3.8008 5.25,3.8008" /><path
         id="path30"
         style="fill:#36ab9c;fill-opacity:1;fill-rule:nonzero;stroke:none"
         d="m 1304.14,29.7656 c 1.7,2.0977 2.61,6.3555 2.9,12.9102 0.29,6.5039 0.46,14.3164 0.46,23.5156 0,21.0469 -1.57,38.5936 -4.66,52.6096 -3.06,14.082 -12.33,21.16 -27.83,21.16 -14.13,0 -24.74,-6.031 -31.88,-18.016 -7.21,-12.004 -10.83,-25.695 -10.83,-41.0856 0,-12.4141 3.36,-25.7422 9.99,-40.0078 6.62,-14.1914 20.12,-21.2891 40.68,-21.2891 4.27,0 8.42,1.0625 12.52,3.3203 4.05,2.207 6.91,4.5117 8.65,6.8828 z m 38.33,-12.8906 c 0.59,0 1.32,-0.3437 2.16,-1.082 0.83,-0.7227 1.21,-1.6914 1.21,-2.8828 0,-3.83989 -5.37,-6.98051 -16.24,-9.33598 C 1318.86,1.19922 1312.98,0 1312.13,0 c -1.95,0 -3.69,0.558594 -5.09,1.77734 -1.37,1.21094 -2.13,2.53125 -2.13,4.00391 0,2.35547 0.28,4.81645 0.93,7.34375 0.52,2.5117 0.09,3.75 -1.28,3.75 -1.18,0 -4.63,-1.9727 -10.4,-5.9453 -5.71,-4.00392 -15.11,-6.06642 -28.04,-6.06642 -13.82,0 -26.8,5.94922 -39.07,17.82422 -12.17,11.8047 -18.34,28.9531 -18.34,51.4844 0,21.6289 6.53,39.6371 19.68,53.9801 13.08,14.383 27.75,21.594 44.1,21.594 9.3,0 16.11,-1.445 20.49,-4.258 4.31,-2.789 7.44,-4.211 9.42,-4.211 1.41,0 2.33,0.661 2.79,2.004 0.39,1.309 0.65,3.196 0.65,5.504 v 134.223 c 0,7.387 -2.94,11.066 -8.68,11.066 -5.77,0 -8.68,2.356 -8.68,7.149 0,2.937 0.88,4.726 2.57,5.293 1.64,0.632 3.5,0.902 5.45,0.902 h 28.67 c 0.55,0 1.31,-0.215 2.33,-0.699 1.01,-0.418 1.46,-1.836 1.46,-4.18 0,-7.984 -0.17,-16.285 -0.63,-24.91 -0.35,-8.547 -0.61,-17.008 -0.61,-25.285 V 24.4531 c 0,-4.1484 0.26,-6.7265 0.61,-7.7734 0.46,-1.043 1.7,-1.5625 3.6,-1.5625 2.53,0 4.58,0.3125 6.14,0.8984 1.57,0.5782 3.03,0.8594 4.4,0.8594" /><path
         id="path32"
         style="fill:#36ab9c;fill-opacity:1;fill-rule:nonzero;stroke:none"
         d="m 1434.06,57.6484 c 11.25,0 19.19,4.4297 23.89,13.3282 4.6,8.8789 6.9,16.9062 6.9,23.9726 v 19.1368 c 0,6.754 -0.31,10.914 -1.03,12.434 -0.69,1.484 -1.73,2.214 -3.18,2.214 -0.85,0 -8.44,-3.457 -22.79,-10.453 -14.33,-6.98 -21.5,-19.4724 -21.5,-37.5271 0,-5.0586 1.4,-10.1289 4.25,-15.332 2.83,-5.2188 7.29,-7.7735 13.46,-7.7735 z m 72.58,17.793 c 0.89,0 1.93,-0.207 3.21,-0.6953 1.26,-0.4609 1.89,-1.4063 1.89,-2.8828 0,-2.0977 -2.29,-6.6094 -6.98,-13.5352 -4.66,-6.9883 -11.92,-10.4453 -21.73,-10.4453 -5.91,0 -10.64,1.7852 -14.12,5.332 -3.52,3.543 -6.44,7.5274 -8.69,11.9883 -5.28,-6.25 -10.95,-11.3242 -16.89,-15.332 -5.87,-3.9727 -13.77,-6.0039 -23.58,-6.0039 -7.03,0 -13.1,2.2383 -17.95,6.668 -4.89,4.4257 -7.42,12.1328 -7.42,23.1093 0,19.2852 6.9,33.0935 20.7,41.5315 13.8,8.469 21.27,12.828 22.38,13.078 4.77,2.422 9.07,4.297 12.84,5.766 3.82,1.531 7.42,2.851 10.8,3.992 0.56,1.218 1.02,2.703 1.45,4.472 0.48,1.789 0.6,3.739 0.6,5.778 0,11.242 -0.81,20.39 -2.51,27.308 -1.66,6.993 -7.72,10.504 -18.1,10.504 -16.6,0 -24.99,-7.465 -25.16,-22.265 -0.09,-14.809 -5.82,-22.196 -17.05,-22.196 -2.77,0 -4.7,0.871 -5.49,2.66 -0.87,1.786 -1.3,3.989 -1.3,6.688 0,4.117 5.22,13.004 15.6,26.637 10.48,13.609 24.8,20.425 43.06,20.425 15.17,0 24.15,-4.363 26.82,-13.101 2.7,-8.723 4.01,-16.07 4.01,-21.996 V 79.8555 c 0,-2.6758 0.59,-5.3047 1.67,-7.9922 1.16,-2.6524 3.69,-4 7.6,-4 4.86,0 7.8,1.2695 9.1,3.7773 1.27,2.5313 3.06,3.8008 5.24,3.8008" /></g></g></svg>