<?xml version="1.0" encoding="utf-8"?>
<!-- Generator: Adobe Illustrator 18.0.0, SVG Export Plug-In . SVG Version: 6.00 Build 0)  -->
<!DOCTYPE svg PUBLIC "-//W3C//DTD SVG 1.1//EN" "http://www.w3.org/Graphics/SVG/1.1/DTD/svg11.dtd">
<svg version="1.1" id="Layer_1" xmlns="http://www.w3.org/2000/svg" xmlns:xlink="http://www.w3.org/1999/xlink" x="0px" y="0px"
	 viewBox="0 0 512 512" enable-background="new 0 0 512 512" xml:space="preserve">
<g>
	<circle fill="#FD8469" cx="256" cy="256" r="253"/>
	<g>
		<path fill="#2B3B4E" d="M154.7,275.1v4.3v33.7l2.7-1c1-0.4,99.7-35.2,197.1,0l2.7,1v-33.7v-4.3C261.1,240.7,163.8,272,154.7,275.1
			z"/>
		<polygon fill="#2B3B4E" points="256,101.9 97.9,156.5 256,211.1 414.1,156.5 		"/>
		<path fill="#435E70" d="M256,211.1l-101.3-35v99c9.1-3.1,106.4-34.4,202.6,0v-99L256,211.1z"/>
		<circle fill="#FFD05B" cx="256.1" cy="347.5" r="25"/>
		<path fill="#F1543F" d="M256.1,322.5c8.9,0,16.7,4.7,21.2,11.7v-15.1c0-2-1.6-3.7-3.7-3.7h-35.2c-2,0-3.7,1.6-3.7,3.7v15.4
			C239.1,327.3,247,322.5,256.1,322.5z"/>
		<path fill="#E6E9EE" d="M238.7,329.6c0,0-0.1,0.1-0.1,0.1C238.6,329.7,238.6,329.7,238.7,329.6z"/>
		<path fill="#E6E9EE" d="M236.3,332.3c0.1-0.1,0.2-0.3,0.3-0.4C236.6,332,236.5,332.1,236.3,332.3z"/>
		<path fill="#FFFFFF" d="M234.9,334.4c0,0.1-0.1,0.1-0.1,0.2v-10.9H102.1v32.2h130.5c-0.9-2.6-1.4-5.4-1.4-8.3
			C231.1,342.7,232.5,338.2,234.9,334.4z"/>
		<path fill="#FFFFFF" d="M277.3,323.6v10.6c-0.1-0.1-0.2-0.2-0.2-0.3c2.6,3.9,4.1,8.6,4.1,13.6c0,2.9-0.5,5.7-1.4,8.3h130.3v-32.2
			H277.3z"/>
		<path fill="#E6E9EE" d="M273.3,329.4c0.2,0.1,0.3,0.3,0.4,0.5C273.6,329.7,273.4,329.5,273.3,329.4z"/>
		<path fill="#E6E9EE" d="M275.8,332.2c-0.2-0.2-0.3-0.4-0.5-0.7C275.4,331.7,275.6,331.9,275.8,332.2z"/>
		<circle fill="#F9B54C" cx="256.1" cy="347.5" r="16.5"/>
		<polygon fill="#1C2A38" points="256,160.6 256,152.5 110.4,152.5 110.4,250.5 101.9,278.8 127.1,278.8 118.5,250.7 118.5,160.6 		
			"/>
		<path fill="#F1543F" d="M256.1,372.5c-9.1,0-17-4.8-21.4-12.1v51.8l21.3-18.4l21.3,18.4v-51.5C272.8,367.8,265,372.5,256.1,372.5z
			"/>
		<path fill="#ACB3BA" d="M238.7,365.4c-0.1-0.1-0.2-0.2-0.3-0.3C238.5,365.2,238.6,365.3,238.7,365.4z"/>
		<path fill="#ACB3BA" d="M236.2,362.5c0.2,0.2,0.3,0.4,0.5,0.6C236.5,363,236.3,362.7,236.2,362.5z"/>
		<path fill="#CED5E0" d="M234.7,360.5c0,0.1,0.1,0.2,0.2,0.2c-0.9-1.5-1.8-3.1-2.4-4.9H102.1v4.1v20.4h132.7V360.5z"/>
		<path fill="#ACB3BA" d="M273.3,365.7c0.3-0.3,0.6-0.6,0.9-0.9C273.8,365,273.6,365.4,273.3,365.7z"/>
		<path fill="#CED5E0" d="M279.7,355.8c-0.6,1.8-1.5,3.5-2.5,5.1c0-0.1,0.1-0.1,0.1-0.2v19.5h132.7v-20.4v-4.1H279.7z"/>
		<path fill="#ACB3BA" d="M276.1,362.4c-0.2,0.3-0.5,0.7-0.7,1C275.6,363.1,275.8,362.8,276.1,362.4z"/>
	</g>
</g>
</svg>
