<?xml version="1.0" encoding="utf-8"?>
<!-- Generator: Adobe Illustrator 18.0.0, SVG Export Plug-In . SVG Version: 6.00 Build 0)  -->
<!DOCTYPE svg PUBLIC "-//W3C//DTD SVG 1.1//EN" "http://www.w3.org/Graphics/SVG/1.1/DTD/svg11.dtd">
<svg version="1.1" id="Layer_1" xmlns="http://www.w3.org/2000/svg" xmlns:xlink="http://www.w3.org/1999/xlink" x="0px" y="0px"
	 viewBox="0 0 128 128" enable-background="new 0 0 128 128" xml:space="preserve">
<g>
	<circle fill="#90DFAA" cx="64" cy="64" r="63"/>
	<g>
		<path fill="#46637F" d="M64,87.2c0,0,0,0-30.3-17.2c-6.2-3.5-9-7.9-9-12h0V74h0c-0.1,4.2,2.8,8.6,9,12.1
			C64,103.4,64,103.4,64,103.4"/>
		<path fill="#2B3B4E" d="M64,103.4c0,0,0,0,30.3-17.2c6.2-3.5,9.1-7.9,9-12.1h0V58h0c0,4.2-2.8,8.5-9,12C64,87.2,64,87.2,64,87.2"
			/>
		<path fill="#324A5E" d="M87.9,44.9c-7.1-1.5-16.8-0.4-23.9,4.3c-6.5-4.3-15.1-5.6-21.9-4.6c-0.7,0.1-1.3,0.2-2,0.3
			c-1.2,0.3-2.4,0.6-3.5,0.9c-7.7,2.5-11.9,7.1-12,12.2c0,4.2,2.8,8.5,9,12C64,87.2,64,87.2,64,87.2s0,0,13.3-7.5
			c1.3-0.7,2.6-1.5,4.1-2.4c3.5-2,7.8-4.4,12.9-7.3c6.2-3.5,9-7.9,9-12C103.3,52.2,97.8,46.9,87.9,44.9z"/>
		<ellipse fill="#ACB3BA" cx="64" cy="65.6" rx="19.5" ry="4.7"/>
		<g>
			<polygon fill="#FF7058" points="64,29.6 68.2,29.6 66.1,25 			"/>
			<polygon fill="#FF7058" points="54.6,29.6 59.8,29.6 57.7,25 			"/>
			<polygon fill="#FF7058" points="59.8,29.6 64,29.6 61.9,25 			"/>
			<polygon fill="#FF7058" points="70.2,25 68.2,29.6 73.4,29.6 			"/>
			<polygon fill="#FF7058" points="57.8,25 57.7,25 59.8,29.6 61.9,25 			"/>
			<polygon fill="#FF7058" points="61.9,25 64,29.6 66.1,25 			"/>
			<polygon fill="#FF7058" points="66.1,25 68.2,29.6 70.2,25 			"/>
			<polygon fill="#F1543F" points="70.2,29.6 70.2,29.5 68.2,25 66.1,29.6 			"/>
			<polygon fill="#F1543F" points="66.1,29.6 64,25 61.9,29.6 			"/>
			<polygon fill="#F1543F" points="61.9,29.6 59.8,25 57.7,29.6 			"/>
			<path fill="#F1543F" d="M57.7,29.6h-3.1l3.7,5.4c0.6-0.2,1.1-0.3,1.7-0.4L57.7,29.6z"/>
			<path fill="#F1543F" d="M68.9,34.6c0.3,0.1,0.6,0.2,0.9,0.2l3.6-5.3h-3.1L68,34.4C68.3,34.5,68.6,34.6,68.9,34.6z"/>
			<path fill="#FF7058" d="M61,34.3c0.4-0.1,0.9-0.1,1.3-0.2l-0.9-4.6h-3.7l2.3,4.9C60.3,34.4,60.7,34.4,61,34.3z"/>
			<path fill="#FF7058" d="M66.2,34.2c0.5,0.1,0.9,0.1,1.4,0.2c0.2,0,0.3,0,0.4,0.1l2.2-4.9h-3.7l-0.9,4.6
				C65.9,34.1,66,34.1,66.2,34.2z"/>
			<path fill="#F1543F" d="M63.7,34.1l0.2,0l0.1,0l0,0c0,0,0.3,0,0.2,0l0.3,0l0.6,0l0.6,0c0,0,0.1,0,0.1,0l0.9-4.6h-5.2l0.9,4.6
				C62.8,34.1,63.2,34.1,63.7,34.1z"/>
			<path fill="#E6E9EE" d="M54.2,66.5c-3.4-2.7-5.5-6.9-5.5-11.5c0-8.3,6.9-15,15.3-15c8.5,0,15.3,6.7,15.3,15
				c0,4.6-2.1,8.7-5.5,11.5h5.1c3.2-3.4,5.1-8,5.1-13c0-10.8-8.9-19.5-20-19.5s-20,8.7-20,19.5c0,5,1.9,9.5,5.1,13H54.2z"/>
		</g>
	</g>
</g>
</svg>
